<svg viewBox="0 0 500 500" xmlns="http://www.w3.org/2000/svg">
  <ellipse style="fill: rgb(210, 217, 122);" cx="250" cy="250" rx="217.043" ry="217.043"/>
  <path d="M 295.144 426.937 Q 291.144 425.337 286.944 420.937 Q 282.744 416.537 281.944 413.337 Q 279.944 405.337 277.544 393.737 Q 275.144 382.137 272.744 368.937 Q 270.344 355.737 268.144 341.937 Q 265.944 328.137 263.944 315.537 Q 261.944 302.937 260.744 292.937 Q 259.544 282.937 259.144 276.937 Q 259.144 270.537 263.544 269.737 Q 273.944 268.537 278.344 277.337 Q 280.344 284.537 282.744 293.737 Q 285.144 302.937 287.544 313.737 Q 297.144 310.137 304.744 304.537 Q 312.344 298.937 317.344 292.337 Q 322.344 285.737 324.544 278.737 Q 326.744 271.737 325.144 264.937 Q 323.144 257.337 313.944 253.737 Q 304.744 250.137 293.144 250.137 Q 277.144 250.137 264.544 255.937 Q 251.944 261.737 241.544 270.137 Q 236.744 273.737 230.944 272.337 Q 225.144 270.937 223.144 264.937 Q 223.144 259.337 225.144 255.337 Q 227.144 251.337 230.344 248.137 Q 242.744 235.337 259.744 230.137 Q 276.744 224.937 295.544 224.937 Q 310.744 224.937 324.944 229.737 Q 339.144 234.537 349.144 246.937 Q 353.944 254.937 354.144 263.737 Q 354.344 272.537 351.544 280.937 Q 348.744 289.337 343.744 296.937 Q 338.744 304.537 333.544 310.137 Q 343.544 309.337 353.944 311.937 Q 364.344 314.537 372.544 320.737 Q 380.744 326.937 385.944 336.937 Q 391.144 346.937 391.144 360.937 Q 391.144 376.937 384.144 390.137 Q 377.144 403.337 365.744 412.537 Q 354.344 421.737 339.744 426.937 Q 325.144 432.137 309.544 432.137 Q 302.744 432.137 298.744 428.137 Q 296.744 428.137 295.144 426.937 Z M 293.544 342.937 Q 296.744 358.537 299.544 375.337 Q 302.344 392.137 305.544 408.937 L 307.144 408.937 Q 315.944 408.937 326.544 405.737 Q 337.144 402.537 346.344 396.337 Q 355.544 390.137 361.544 381.137 Q 367.544 372.137 367.144 360.937 Q 365.144 350.937 357.944 345.737 Q 350.744 340.537 340.544 338.937 Q 330.344 337.337 318.144 338.737 Q 305.944 340.137 293.544 342.937 Z" style="fill: rgb(248, 244, 237); white-space: pre;"/>
</svg>